<?xml version="1.0" encoding="UTF-8" standalone="no"?>
<!-- Generator: Adobe Illustrator 27.5.0, SVG Export Plug-In . SVG Version: 6.00 Build 0)  -->

<svg
   version="1.1"
   x="0px"
   y="0px"
   viewBox="0 0 1500 500"
   style="enable-background:new 0 0 1500 500;"
   xml:space="preserve"
   id="svg112"
   sodipodi:docname="21695543_6483628.svg"
   inkscape:version="1.2.2 (b0a84865, 2022-12-01)"
   xmlns:inkscape="http://www.inkscape.org/namespaces/inkscape"
   xmlns:sodipodi="http://sodipodi.sourceforge.net/DTD/sodipodi-0.dtd"
   xmlns="http://www.w3.org/2000/svg"
   xmlns:svg="http://www.w3.org/2000/svg"><defs
   id="defs116" /><sodipodi:namedview
   id="namedview114"
   pagecolor="#ffffff"
   bordercolor="#000000"
   borderopacity="0.25"
   inkscape:showpageshadow="2"
   inkscape:pageopacity="0.0"
   inkscape:pagecheckerboard="0"
   inkscape:deskcolor="#d1d1d1"
   showgrid="false"
   inkscape:zoom="0.93192752"
   inkscape:cx="822.48885"
   inkscape:cy="221.58376"
   inkscape:window-width="1680"
   inkscape:window-height="947"
   inkscape:window-x="0"
   inkscape:window-y="25"
   inkscape:window-maximized="1"
   inkscape:current-layer="OBJECTS" />
<g
   id="BACKGROUND">
	<rect
   x="1.111"
   style="fill:#B7E69C;"
   width="1498.889"
   height="499.913"
   id="rect2" />
</g>
<g
   id="OBJECTS">
	<g
   id="g109">
		<g
   id="g13">
			<polygon
   style="fill:#A95E91;"
   points="952.501,330.951 951.002,330.951 549.743,330.951 403.868,330.951 1.111,330.951      1.111,500 403.868,500 549.743,500 951.002,500 952.501,500 1499.634,500 1499.634,330.951    "
   id="polygon5" />
			<polygon
   style="opacity:0.25;fill:#6F345B;"
   points="952.866,366.398 949.891,366.398 550.109,366.398 402.757,366.398      0,366.398 0,461.939 402.757,461.939 550.109,461.939 949.891,461.939 952.866,461.939 1500,461.939 1500,366.398    "
   id="polygon7" />
			<polygon
   style="opacity:0.25;fill:#6F345B;"
   points="952.866,366.398 949.891,366.398 550.109,366.398 402.757,366.398      0,366.398 0,420.513 402.757,420.513 550.109,420.513 949.891,420.513 952.866,420.513 1500,420.513 1500,366.398    "
   id="polygon9" />
			<polygon
   style="fill:#91B67D;"
   points="952.501,330.951 927.682,330.951 549.743,330.951 403.868,330.951 1.111,330.951      1.111,391.423 54.874,391.423 54.874,440.669 98.507,440.669 98.507,386.907 124.291,386.907 124.291,418.26 161.215,418.26      161.215,388.047 186.956,388.047 186.956,473.12 219.45,473.12 219.45,389.143 256.374,389.143 256.374,422.733 291.104,423.873      291.104,388.047 325.791,390.283 325.791,468.647 369.468,468.647 369.468,392.519 407.531,392.519 407.531,461.939      452.348,461.939 452.403,429.518 549.743,429.487 549.743,418.26 550.109,418.26 550.109,388.047 589.713,388.047      589.713,473.12 622.207,473.12 622.207,389.143 659.131,389.143 659.131,422.733 693.862,423.873 693.862,388.047      728.549,390.283 728.549,468.647 772.225,468.647 772.225,392.519 810.289,392.519 810.289,451.851 855.105,451.851      855.105,390.283 906.588,390.283 906.588,429.487 952.501,429.487 952.501,391.423 1004.765,391.423 1004.765,440.669      1048.397,440.669 1048.397,386.907 1074.182,386.907 1074.182,418.26 1111.106,418.26 1111.106,388.047 1136.847,388.047      1136.847,473.12 1169.341,473.12 1169.341,389.143 1206.264,389.143 1206.264,422.733 1240.995,423.873 1240.995,388.047      1275.682,390.283 1275.682,468.647 1319.359,468.647 1319.359,392.519 1357.422,392.519 1357.422,451.851 1402.239,451.851      1402.239,390.283 1453.721,390.283 1453.721,429.487 1499.634,429.487 1499.634,330.951    "
   id="polygon11" />
		</g>
		<g
   id="g107">
			<g
   id="g19">
				<polygon
   style="fill:#DAFFC4;"
   points="619.411,121.161 619.411,143.527 396.248,143.527 396.248,124.889 423.085,124.889       423.085,95.771 456.676,95.771 456.676,63.671 496.23,63.671 496.23,75.6 533.549,75.6 533.549,91.298 582.093,91.298       582.093,121.161     "
   id="polygon15" />
				<polygon
   style="fill:#DAFFC4;"
   points="1069.367,267.519 1069.367,289.884 846.204,289.884 846.204,271.246 873.042,271.246       873.042,242.128 906.632,242.128 906.632,210.029 946.187,210.029 946.187,221.957 983.505,221.957 983.505,237.656       1032.049,237.656 1032.049,267.519     "
   id="polygon17" />
			</g>
			<g
   id="g23">
				<polygon
   style="fill:#DAFFC4;"
   points="733.865,296.228 733.865,305.175 606.255,305.175 606.255,285.792 629.365,285.792       629.365,264.875 673.436,264.875 673.436,276.846 708.518,276.846 708.518,296.228     "
   id="polygon21" />
			</g>
			<g
   id="g27">
				<polygon
   style="fill:#DAFFC4;"
   points="171.009,243.246 171.009,252.193 43.399,252.193 43.399,232.81 66.51,232.81       66.51,211.893 110.581,211.893 110.581,223.864 145.662,223.864 145.662,243.246     "
   id="polygon25" />
			</g>
			<g
   id="g31">
				<polygon
   style="fill:#DAFFC4;"
   points="1181.151,114.802 1181.151,123.749 1053.541,123.749 1053.541,104.366 1076.651,104.366       1076.651,83.449 1120.722,83.449 1120.722,95.42 1155.804,95.42 1155.804,114.802     "
   id="polygon29" />
			</g>
			<g
   id="g35">
				<polygon
   style="fill:#DAFFC4;"
   points="1465.675,261.16 1465.675,270.106 1338.065,270.106 1338.065,250.724 1361.175,250.724       1361.175,229.806 1405.246,229.806 1405.246,241.778 1440.328,241.778 1440.328,261.16     "
   id="polygon33" />
			</g>
			<g
   id="g53">
				<g
   id="g39">
					<path
   style="fill:#A95E91;"
   d="M1004.826,58.912l-14.474-17.765l-17.019,13.405l-17.575-13.405l-13.917,17.765v26.83       l30.871,20.554c-0.009,0.525-0.015,0.837-0.015,0.837l0.636-0.424l0.636,0.424c0,0-0.005-0.313-0.015-0.837l30.871-20.554       V58.912z"
   id="path37" />
				</g>
				<g
   id="g43">
					<path
   style="fill:#A95E91;"
   d="M303.347,97.33l-25.771-31.633l-30.303,23.869l-31.294-23.869l-24.78,31.633v47.773       l54.968,36.598c-0.016,0.935-0.026,1.491-0.026,1.491l1.133-0.755l1.133,0.755c0,0-0.01-0.557-0.026-1.491l54.968-36.598V97.33       z"
   id="path41" />
				</g>
				<g
   id="g47">
					<path
   style="fill:#A95E91;"
   d="M498.879,214.475l-16.698-20.496l-19.634,15.465l-20.276-15.465l-16.056,20.496v30.953       l35.615,23.713c-0.011,0.605-0.017,0.966-0.017,0.966l0.734-0.489l0.734,0.489c0,0-0.007-0.361-0.017-0.966l35.615-23.713       V214.475z"
   id="path45" />
				</g>
				<g
   id="g51">
					<path
   style="fill:#A95E91;"
   d="M1308.121,164.584l-22.255-27.317l-26.168,20.612l-27.024-20.612l-21.399,27.317v41.254       l47.468,31.605c-0.014,0.806-0.023,1.287-0.023,1.287l0.978-0.651l0.978,0.651c0,0-0.009-0.481-0.023-1.287l47.468-31.605       V164.584z"
   id="path49" />
				</g>
			</g>
			<g
   id="g79">
				<g
   id="g65"
   style="display:none">
					<path
   style="fill:#6f345b"
   d="m 582.863,264.875 v -9.24 h -9.243 v -9.243 h 18.483 v 9.243 h 27.726 v -18.487 h -36.966 v -9.24 h -9.243 v -18.487 h 9.243 v -9.24 h 46.21 v 9.24 h 9.243 v 9.243 h -18.487 v -9.243 h -27.726 v 18.487 h 36.97 v 9.24 h 9.243 v 18.487 h -9.243 v 9.24 z"
   id="path55" />
					<path
   style="fill:#6f345b"
   d="m 675.282,264.875 v -55.453 h -18.483 v -9.24 h 55.453 v 9.24 h -18.487 v 55.453 z"
   id="path57" />
					<path
   style="fill:#6f345b"
   d="m 721.491,264.875 v -46.21 h 9.244 v -9.243 h 9.24 v -9.24 h 27.726 v 9.24 h 9.244 v 9.243 h 9.243 v 46.21 h -18.487 v -18.483 h -27.726 v 18.483 z m 18.484,-27.727 h 27.726 v -18.483 h -9.24 v -9.243 h -9.244 v 9.243 h -9.243 v 18.483 z"
   id="path59" />
					<path
   style="fill:#6f345b"
   d="m 795.428,264.875 v -64.693 h 55.452 v 9.24 h 9.244 v 27.726 h -18.487 v 9.244 h 9.243 v 9.243 h 9.244 v 9.24 h -27.727 v -9.24 h -9.243 v -9.243 h -9.243 v 18.483 z m 18.483,-27.727 h 18.486 v -9.24 h 9.24 v -18.487 h -27.726 z"
   id="path61" />
					<path
   style="fill:#6f345b"
   d="m 897.09,264.875 v -55.453 h -18.483 v -9.24 h 55.452 v 9.24 h -18.487 v 55.453 z"
   id="path63" />
				</g>
				<g
   id="g77"
   style="display:none">
					<path
   style="fill:#6f345b"
   d="m 573.62,179.898 v -64.692 h 55.453 v 9.24 h 9.243 v 27.727 h -9.243 v 9.243 h -36.97 v 18.483 H 573.62 Z m 18.483,-27.726 h 27.726 v -27.727 h -27.726 z"
   id="path67" />
					<path
   style="fill:#6f345b"
   d="m 647.556,179.898 v -64.692 h 55.452 v 9.24 h 9.244 v 27.727 h -18.487 v 9.243 h 9.243 v 9.244 h 9.244 v 9.24 h -27.727 v -9.24 h -9.243 v -9.244 h -9.243 v 18.483 h -18.483 z m 18.483,-27.726 h 18.486 v -9.24 h 9.24 v -18.487 h -27.726 z"
   id="path69" />
					<path
   style="fill:#6f345b"
   d="m 721.491,179.898 v -64.692 h 64.696 v 9.24 h -46.213 v 18.487 h 36.97 v 9.24 h -36.97 v 18.487 h 46.213 v 9.24 h -64.696 z"
   id="path71" />
					<path
   style="fill:#6f345b"
   d="m 804.671,179.898 v -9.24 h -9.243 v -9.244 h 18.483 v 9.244 h 27.726 v -18.487 h -36.966 v -9.24 h -9.243 v -18.487 h 9.243 v -9.24 h 46.209 v 9.24 h 9.244 v 9.244 h -18.487 v -9.244 h -27.726 v 18.487 h 36.969 v 9.24 h 9.244 v 18.487 h -9.244 v 9.24 z"
   id="path73" />
					<path
   style="fill:#6f345b"
   d="m 878.607,179.898 v -9.24 h -9.244 v -9.244 h 18.483 v 9.244 h 27.726 v -18.487 h -36.966 v -9.24 h -9.244 v -18.487 h 9.244 v -9.24 h 46.209 v 9.24 h 9.243 v 9.244 h -18.487 v -9.244 h -27.726 v 18.487 h 36.97 v 9.24 h 9.243 v 18.487 h -9.243 v 9.24 z"
   id="path75" />
				</g>
			</g>
			<g
   id="g89">
				<polygon
   style="fill:#DAFFC4;"
   points="672.95,32.656 688.474,41.147 672.95,49.637 664.46,65.161 655.969,49.637       640.445,41.147 655.969,32.656 664.46,17.132     "
   id="polygon81" />
				<polygon
   style="fill:#DAFFC4;"
   points="1013.316,168.13 1028.841,176.621 1013.316,185.111 1004.826,200.636 996.335,185.111       980.811,176.621 996.335,168.13 1004.826,152.607     "
   id="polygon83" />
				<polygon
   style="fill:#DAFFC4;"
   points="854.695,328.201 870.219,336.692 854.695,345.182 846.204,360.706 837.714,345.182       822.189,336.692 837.714,328.201 846.204,312.677     "
   id="polygon85" />
				<polygon
   style="fill:#DAFFC4;"
   points="503.565,360.95 519.089,369.441 503.565,377.931 495.074,393.455 486.584,377.931       471.06,369.441 486.584,360.95 495.074,345.426     "
   id="polygon87" />
			</g>
			<g
   id="g97">
				<polygon
   style="fill:#DAFFC4;"
   points="1386.345,69.785 1401.87,78.276 1386.345,86.766 1377.855,102.29 1369.365,86.766       1353.84,78.276 1369.365,69.785 1377.855,54.261     "
   id="polygon91" />
				<polygon
   style="fill:#DAFFC4;"
   points="1386.345,352.216 1401.87,360.706 1386.345,369.197 1377.855,384.721 1369.364,369.197       1353.84,360.706 1369.364,352.216 1377.855,336.692     "
   id="polygon93" />
				<polygon
   style="fill:#DAFFC4;"
   points="1199.304,281.393 1214.829,289.884 1199.304,298.374 1190.814,313.898 1182.323,298.374       1166.799,289.884 1182.323,281.393 1190.814,265.869     "
   id="polygon95" />
			</g>
			<g
   id="g105">
				<polygon
   style="fill:#DAFFC4;"
   points="80.054,45.771 95.578,54.261 80.054,62.751 71.563,78.275 63.073,62.751 47.549,54.261       63.073,45.771 71.563,30.246     "
   id="polygon99" />
				<polygon
   style="fill:#DAFFC4;"
   points="335.852,223.551 351.377,232.042 335.852,240.532 327.362,256.057 318.872,240.532       303.347,232.042 318.872,223.551 327.362,208.028     "
   id="polygon101" />
				<polygon
   style="fill:#DAFFC4;"
   points="162.053,333.893 177.578,342.384 162.053,350.874 153.563,366.398 145.073,350.874       129.548,342.384 145.073,333.893 153.563,318.369     "
   id="polygon103" />
			</g>
		</g>
	</g>
</g>
</svg>
